<svg width="310" height="262" viewBox="0 0 310 262" fill="none" xmlns="http://www.w3.org/2000/svg">
<path d="M309.375 249.438C309.374 252.579 308.123 255.591 305.896 257.812C303.669 260.033 300.649 261.281 297.5 261.281H12.4995C9.35011 261.281 6.32975 260.033 4.10279 257.812C1.87583 255.591 0.624665 252.579 0.624512 249.438V12.5625C0.624512 9.42134 1.87562 6.40884 4.10262 4.18771C6.32961 1.96657 9.35007 0.71875 12.4995 0.71875C15.649 0.71875 18.6694 1.96657 20.8964 4.18771C23.1234 6.40884 24.3745 9.42134 24.3745 12.5625V173.472L99.1064 98.9371C101.334 96.7161 104.354 95.4684 107.504 95.4684C110.653 95.4684 113.674 96.7161 115.901 98.9371L155.004 137.938L245.085 48.0938H214.379C211.229 48.0938 208.209 46.8459 205.982 44.6248C203.755 42.4037 202.504 39.3912 202.504 36.25C202.504 33.1088 203.755 30.0963 205.982 27.8752C208.209 25.6541 211.229 24.4062 214.379 24.4062H273.754C274.145 24.4062 274.536 24.4272 274.926 24.4655C275.101 24.4821 275.271 24.5153 275.443 24.5399C275.654 24.5695 275.866 24.5941 276.075 24.6361C276.271 24.6744 276.462 24.7286 276.655 24.777C276.838 24.8226 277.021 24.863 277.202 24.9173C277.391 24.9744 277.574 25.0452 277.758 25.1117C277.939 25.1761 278.121 25.2353 278.299 25.3091C278.469 25.3792 278.633 25.4623 278.799 25.5404C278.985 25.6271 279.172 25.7096 279.354 25.8071C279.509 25.8895 279.655 25.9842 279.806 26.0732C279.988 26.1816 280.173 26.2842 280.351 26.4035C280.511 26.5105 280.661 26.6298 280.816 26.7447C280.973 26.8604 281.132 26.9696 281.284 27.0939C281.529 27.2948 281.761 27.5103 281.99 27.7293C282.043 27.7799 282.099 27.8233 282.151 27.8746C282.207 27.9303 282.254 27.9917 282.308 28.0481C282.524 28.2715 282.736 28.4984 282.933 28.7384C283.063 28.8954 283.177 29.0608 283.297 29.2235C283.407 29.371 283.522 29.5148 283.625 29.6681C283.749 29.8524 283.857 30.0433 283.969 30.2326C284.054 30.3758 284.144 30.5146 284.223 30.6613C284.325 30.8507 284.411 31.0459 284.503 31.2396C284.576 31.3966 284.655 31.5512 284.722 31.7124C284.8 31.8996 284.863 32.0905 284.93 32.2799C284.993 32.4555 285.061 32.6276 285.115 32.8069C285.173 32.9977 285.216 33.1915 285.264 33.3845C285.31 33.5666 285.361 33.7459 285.398 33.931C285.443 34.1558 285.47 34.3828 285.502 34.609C285.524 34.7652 285.554 34.9191 285.569 35.0775C285.609 35.47 285.629 35.864 285.629 36.2572V95.4688C285.629 98.6099 284.378 101.622 282.151 103.844C279.924 106.065 276.903 107.312 273.754 107.312C270.604 107.312 267.584 106.065 265.357 103.844C263.13 101.622 261.879 98.6099 261.879 95.4688V64.8444L163.401 163.063C161.174 165.284 158.153 166.532 155.004 166.532C151.854 166.532 148.834 165.284 146.606 163.063L107.504 124.062L24.3745 206.974V237.594H297.5C300.649 237.594 303.669 238.842 305.896 241.063C308.123 243.284 309.374 246.296 309.375 249.438Z" fill="black"/>
</svg>
